<mxfile host="app.diagrams.net" modified="2024-02-02T16:35:47.812Z" agent="Mozilla/5.0 (Windows NT 10.0; Win64; x64) AppleWebKit/537.36 (KHTML, like Gecko) Chrome/121.0.0.0 Safari/537.36" etag="SgpBKaWe8Ij6HjAgkQ5o" version="23.1.0" type="github">
  <diagram name="Page-1" id="_7Pumyvg6uQAtDbfGPVE">
    <mxGraphModel dx="1764" dy="1020" grid="1" gridSize="10" guides="1" tooltips="1" connect="1" arrows="1" fold="1" page="1" pageScale="1" pageWidth="850" pageHeight="1100" math="0" shadow="0">
      <root>
        <mxCell id="0" />
        <mxCell id="1" parent="0" />
        <mxCell id="wvw5FUJkC93zSwbtG9QK-1" value="Check Weather" style="swimlane;whiteSpace=wrap;html=1;" vertex="1" parent="1">
          <mxGeometry x="500" y="20" width="340" height="550" as="geometry" />
        </mxCell>
        <mxCell id="wvw5FUJkC93zSwbtG9QK-3" value="Start" style="ellipse;whiteSpace=wrap;html=1;fillColor=#d5e8d4;strokeColor=#82b366;" vertex="1" parent="wvw5FUJkC93zSwbtG9QK-1">
          <mxGeometry x="30" y="40" width="120" height="80" as="geometry" />
        </mxCell>
        <mxCell id="wvw5FUJkC93zSwbtG9QK-4" value="Check internet weather for &lt;i&gt;Date&lt;/i&gt;" style="rounded=0;whiteSpace=wrap;html=1;" vertex="1" parent="wvw5FUJkC93zSwbtG9QK-1">
          <mxGeometry x="30" y="160" width="120" height="60" as="geometry" />
        </mxCell>
        <mxCell id="wvw5FUJkC93zSwbtG9QK-5" value="Set &lt;i&gt;Forecast: Current Temp &lt;/i&gt;from site information" style="rounded=0;whiteSpace=wrap;html=1;" vertex="1" parent="wvw5FUJkC93zSwbtG9QK-1">
          <mxGeometry x="190" y="160" width="120" height="60" as="geometry" />
        </mxCell>
        <mxCell id="wvw5FUJkC93zSwbtG9QK-6" value="&lt;span style=&quot;color: rgb(0, 0, 0); font-family: Helvetica; font-size: 12px; font-style: normal; font-variant-ligatures: normal; font-variant-caps: normal; font-weight: 400; letter-spacing: normal; orphans: 2; text-align: center; text-indent: 0px; text-transform: none; widows: 2; word-spacing: 0px; -webkit-text-stroke-width: 0px; background-color: rgb(251, 251, 251); text-decoration-thickness: initial; text-decoration-style: initial; text-decoration-color: initial; float: none; display: inline !important;&quot;&gt;Set&lt;span&gt;&amp;nbsp;&lt;/span&gt;&lt;/span&gt;&lt;i style=&quot;border-color: var(--border-color); color: rgb(0, 0, 0); font-family: Helvetica; font-size: 12px; font-variant-ligatures: normal; font-variant-caps: normal; font-weight: 400; letter-spacing: normal; orphans: 2; text-align: center; text-indent: 0px; text-transform: none; widows: 2; word-spacing: 0px; -webkit-text-stroke-width: 0px; background-color: rgb(251, 251, 251); text-decoration-thickness: initial; text-decoration-style: initial; text-decoration-color: initial;&quot;&gt;Forecast: High Temp&lt;span&gt;&amp;nbsp;&lt;/span&gt;&lt;/i&gt;&lt;span style=&quot;color: rgb(0, 0, 0); font-family: Helvetica; font-size: 12px; font-style: normal; font-variant-ligatures: normal; font-variant-caps: normal; font-weight: 400; letter-spacing: normal; orphans: 2; text-align: center; text-indent: 0px; text-transform: none; widows: 2; word-spacing: 0px; -webkit-text-stroke-width: 0px; background-color: rgb(251, 251, 251); text-decoration-thickness: initial; text-decoration-style: initial; text-decoration-color: initial; float: none; display: inline !important;&quot;&gt;from site information&lt;/span&gt;" style="rounded=0;whiteSpace=wrap;html=1;" vertex="1" parent="wvw5FUJkC93zSwbtG9QK-1">
          <mxGeometry x="30" y="260" width="120" height="60" as="geometry" />
        </mxCell>
        <mxCell id="wvw5FUJkC93zSwbtG9QK-7" value="&lt;span style=&quot;color: rgb(0, 0, 0); font-family: Helvetica; font-size: 12px; font-style: normal; font-variant-ligatures: normal; font-variant-caps: normal; font-weight: 400; letter-spacing: normal; orphans: 2; text-align: center; text-indent: 0px; text-transform: none; widows: 2; word-spacing: 0px; -webkit-text-stroke-width: 0px; background-color: rgb(251, 251, 251); text-decoration-thickness: initial; text-decoration-style: initial; text-decoration-color: initial; float: none; display: inline !important;&quot;&gt;Set&lt;span&gt;&amp;nbsp;&lt;/span&gt;&lt;/span&gt;&lt;i style=&quot;border-color: var(--border-color); color: rgb(0, 0, 0); font-family: Helvetica; font-size: 12px; font-variant-ligatures: normal; font-variant-caps: normal; font-weight: 400; letter-spacing: normal; orphans: 2; text-align: center; text-indent: 0px; text-transform: none; widows: 2; word-spacing: 0px; -webkit-text-stroke-width: 0px; background-color: rgb(251, 251, 251); text-decoration-thickness: initial; text-decoration-style: initial; text-decoration-color: initial;&quot;&gt;Forecast: Low Temp&lt;span&gt;&amp;nbsp;&lt;/span&gt;&lt;/i&gt;&lt;span style=&quot;color: rgb(0, 0, 0); font-family: Helvetica; font-size: 12px; font-style: normal; font-variant-ligatures: normal; font-variant-caps: normal; font-weight: 400; letter-spacing: normal; orphans: 2; text-align: center; text-indent: 0px; text-transform: none; widows: 2; word-spacing: 0px; -webkit-text-stroke-width: 0px; background-color: rgb(251, 251, 251); text-decoration-thickness: initial; text-decoration-style: initial; text-decoration-color: initial; float: none; display: inline !important;&quot;&gt;from site information&lt;/span&gt;" style="rounded=0;whiteSpace=wrap;html=1;" vertex="1" parent="wvw5FUJkC93zSwbtG9QK-1">
          <mxGeometry x="190" y="260" width="120" height="60" as="geometry" />
        </mxCell>
        <mxCell id="wvw5FUJkC93zSwbtG9QK-8" value="Set&amp;nbsp;&lt;i style=&quot;border-color: var(--border-color);&quot;&gt;Forecast: Precip Chance&amp;nbsp;&lt;/i&gt;from site information" style="rounded=0;whiteSpace=wrap;html=1;" vertex="1" parent="wvw5FUJkC93zSwbtG9QK-1">
          <mxGeometry x="30" y="360" width="120" height="60" as="geometry" />
        </mxCell>
        <mxCell id="wvw5FUJkC93zSwbtG9QK-9" value="Stop" style="ellipse;whiteSpace=wrap;html=1;fillColor=#f8cecc;strokeColor=#b85450;" vertex="1" parent="wvw5FUJkC93zSwbtG9QK-1">
          <mxGeometry x="190" y="350" width="120" height="80" as="geometry" />
        </mxCell>
        <mxCell id="wvw5FUJkC93zSwbtG9QK-10" value="&lt;i&gt;Forecast&lt;/i&gt;" style="shape=parallelogram;perimeter=parallelogramPerimeter;whiteSpace=wrap;html=1;fixedSize=1;fillColor=#f5f5f5;fontColor=#333333;strokeColor=#666666;" vertex="1" parent="wvw5FUJkC93zSwbtG9QK-1">
          <mxGeometry x="190" y="470" width="120" height="60" as="geometry" />
        </mxCell>
        <mxCell id="wvw5FUJkC93zSwbtG9QK-2" value="&lt;i&gt;Date&lt;/i&gt;" style="shape=parallelogram;perimeter=parallelogramPerimeter;whiteSpace=wrap;html=1;fixedSize=1;fillColor=#f5f5f5;fontColor=#333333;strokeColor=#666666;" vertex="1" parent="wvw5FUJkC93zSwbtG9QK-1">
          <mxGeometry x="190" y="50" width="120" height="60" as="geometry" />
        </mxCell>
        <mxCell id="wvw5FUJkC93zSwbtG9QK-15" value="" style="curved=1;endArrow=classic;html=1;rounded=0;" edge="1" parent="wvw5FUJkC93zSwbtG9QK-1">
          <mxGeometry width="50" height="50" relative="1" as="geometry">
            <mxPoint x="320" y="290" as="sourcePoint" />
            <mxPoint x="20" y="390" as="targetPoint" />
            <Array as="points">
              <mxPoint x="360" y="350" />
              <mxPoint x="-20" y="340" />
            </Array>
          </mxGeometry>
        </mxCell>
        <mxCell id="wvw5FUJkC93zSwbtG9QK-17" value="" style="endArrow=classic;html=1;rounded=0;" edge="1" parent="wvw5FUJkC93zSwbtG9QK-1">
          <mxGeometry width="50" height="50" relative="1" as="geometry">
            <mxPoint x="160" y="190" as="sourcePoint" />
            <mxPoint x="180" y="190" as="targetPoint" />
          </mxGeometry>
        </mxCell>
        <mxCell id="wvw5FUJkC93zSwbtG9QK-18" value="" style="endArrow=classic;html=1;rounded=0;" edge="1" parent="wvw5FUJkC93zSwbtG9QK-1">
          <mxGeometry width="50" height="50" relative="1" as="geometry">
            <mxPoint x="160" y="389.40999999999997" as="sourcePoint" />
            <mxPoint x="180" y="389.40999999999997" as="targetPoint" />
          </mxGeometry>
        </mxCell>
        <mxCell id="wvw5FUJkC93zSwbtG9QK-20" value="" style="endArrow=classic;html=1;rounded=0;" edge="1" parent="wvw5FUJkC93zSwbtG9QK-1">
          <mxGeometry width="50" height="50" relative="1" as="geometry">
            <mxPoint x="250" y="440" as="sourcePoint" />
            <mxPoint x="250" y="460" as="targetPoint" />
          </mxGeometry>
        </mxCell>
        <mxCell id="wvw5FUJkC93zSwbtG9QK-16" value="" style="endArrow=classic;html=1;rounded=0;" edge="1" parent="wvw5FUJkC93zSwbtG9QK-1">
          <mxGeometry width="50" height="50" relative="1" as="geometry">
            <mxPoint x="160" y="294.41" as="sourcePoint" />
            <mxPoint x="180" y="294.41" as="targetPoint" />
          </mxGeometry>
        </mxCell>
        <mxCell id="wvw5FUJkC93zSwbtG9QK-14" value="" style="curved=1;endArrow=classic;html=1;rounded=0;" edge="1" parent="wvw5FUJkC93zSwbtG9QK-1">
          <mxGeometry width="50" height="50" relative="1" as="geometry">
            <mxPoint x="320" y="194.41" as="sourcePoint" />
            <mxPoint x="20" y="294.41" as="targetPoint" />
            <Array as="points">
              <mxPoint x="360" y="254.41000000000003" />
              <mxPoint x="-20" y="244.41000000000003" />
            </Array>
          </mxGeometry>
        </mxCell>
        <mxCell id="wvw5FUJkC93zSwbtG9QK-19" value="" style="endArrow=classic;html=1;rounded=0;" edge="1" parent="wvw5FUJkC93zSwbtG9QK-1">
          <mxGeometry width="50" height="50" relative="1" as="geometry">
            <mxPoint x="90" y="130" as="sourcePoint" />
            <mxPoint x="90" y="154.41" as="targetPoint" />
          </mxGeometry>
        </mxCell>
        <mxCell id="wvw5FUJkC93zSwbtG9QK-21" value="" style="endArrow=classic;html=1;rounded=0;" edge="1" parent="wvw5FUJkC93zSwbtG9QK-1">
          <mxGeometry width="50" height="50" relative="1" as="geometry">
            <mxPoint x="180" y="84.41" as="sourcePoint" />
            <mxPoint x="160" y="84.41" as="targetPoint" />
          </mxGeometry>
        </mxCell>
        <mxCell id="wvw5FUJkC93zSwbtG9QK-22" value="Start" style="ellipse;whiteSpace=wrap;html=1;fillColor=#d5e8d4;strokeColor=#82b366;" vertex="1" parent="1">
          <mxGeometry x="20" y="60" width="120" height="80" as="geometry" />
        </mxCell>
        <mxCell id="wvw5FUJkC93zSwbtG9QK-23" value="Set &lt;i&gt;Date&lt;/i&gt;" style="rounded=0;whiteSpace=wrap;html=1;" vertex="1" parent="1">
          <mxGeometry x="180" y="70" width="120" height="60" as="geometry" />
        </mxCell>
        <mxCell id="wvw5FUJkC93zSwbtG9QK-25" value="Check Weather" style="shape=process;whiteSpace=wrap;html=1;backgroundOutline=1;" vertex="1" parent="1">
          <mxGeometry x="340" y="70" width="120" height="60" as="geometry" />
        </mxCell>
        <mxCell id="wvw5FUJkC93zSwbtG9QK-26" value="Set &lt;i&gt;celForecast&lt;/i&gt;&amp;nbsp;to &lt;i&gt;Result&lt;/i&gt;" style="rounded=0;whiteSpace=wrap;html=1;" vertex="1" parent="1">
          <mxGeometry x="180" y="170" width="120" height="60" as="geometry" />
        </mxCell>
        <mxCell id="wvw5FUJkC93zSwbtG9QK-28" value="" style="curved=1;endArrow=classic;html=1;rounded=0;" edge="1" parent="1">
          <mxGeometry width="50" height="50" relative="1" as="geometry">
            <mxPoint x="470" y="100" as="sourcePoint" />
            <mxPoint x="170" y="200.00000000000003" as="targetPoint" />
            <Array as="points">
              <mxPoint x="510" y="160.00000000000003" />
              <mxPoint x="130" y="150.00000000000003" />
            </Array>
          </mxGeometry>
        </mxCell>
        <mxCell id="wvw5FUJkC93zSwbtG9QK-29" value="" style="endArrow=classic;html=1;rounded=0;" edge="1" parent="1">
          <mxGeometry width="50" height="50" relative="1" as="geometry">
            <mxPoint x="310" y="99.41" as="sourcePoint" />
            <mxPoint x="330" y="99.41" as="targetPoint" />
          </mxGeometry>
        </mxCell>
        <mxCell id="wvw5FUJkC93zSwbtG9QK-30" value="" style="endArrow=classic;html=1;rounded=0;" edge="1" parent="1">
          <mxGeometry width="50" height="50" relative="1" as="geometry">
            <mxPoint x="310" y="199.41" as="sourcePoint" />
            <mxPoint x="330" y="199.41" as="targetPoint" />
          </mxGeometry>
        </mxCell>
        <mxCell id="wvw5FUJkC93zSwbtG9QK-31" value="Convert Temp" style="shape=process;whiteSpace=wrap;html=1;backgroundOutline=1;" vertex="1" parent="1">
          <mxGeometry x="340" y="170" width="120" height="60" as="geometry" />
        </mxCell>
        <mxCell id="wvw5FUJkC93zSwbtG9QK-33" value="" style="endArrow=classic;html=1;rounded=0;" edge="1" parent="1">
          <mxGeometry width="50" height="50" relative="1" as="geometry">
            <mxPoint x="150" y="99.63" as="sourcePoint" />
            <mxPoint x="170" y="99.63" as="targetPoint" />
          </mxGeometry>
        </mxCell>
        <mxCell id="wvw5FUJkC93zSwbtG9QK-35" value="Convert Temp" style="swimlane;whiteSpace=wrap;html=1;" vertex="1" parent="1">
          <mxGeometry x="150" y="460" width="340" height="560" as="geometry" />
        </mxCell>
        <mxCell id="wvw5FUJkC93zSwbtG9QK-36" value="&lt;i&gt;Forecast: High Temp&lt;br&gt;Forecast: Low Temp&lt;br&gt;&lt;/i&gt;" style="shape=parallelogram;perimeter=parallelogramPerimeter;whiteSpace=wrap;html=1;fixedSize=1;fillColor=#f5f5f5;fontColor=#333333;strokeColor=#666666;" vertex="1" parent="wvw5FUJkC93zSwbtG9QK-35">
          <mxGeometry x="180" y="50" width="140" height="60" as="geometry" />
        </mxCell>
        <mxCell id="wvw5FUJkC93zSwbtG9QK-37" value="Start" style="ellipse;whiteSpace=wrap;html=1;fillColor=#d5e8d4;strokeColor=#82b366;" vertex="1" parent="wvw5FUJkC93zSwbtG9QK-35">
          <mxGeometry x="30" y="40" width="120" height="80" as="geometry" />
        </mxCell>
        <mxCell id="wvw5FUJkC93zSwbtG9QK-38" value="&lt;i&gt;Conv. Factor&lt;/i&gt;&amp;nbsp;is 9/5" style="rounded=0;whiteSpace=wrap;html=1;" vertex="1" parent="wvw5FUJkC93zSwbtG9QK-35">
          <mxGeometry x="30" y="160" width="120" height="60" as="geometry" />
        </mxCell>
        <mxCell id="wvw5FUJkC93zSwbtG9QK-39" value="&lt;i&gt;Freezing Offset &lt;/i&gt;is 32" style="rounded=0;whiteSpace=wrap;html=1;" vertex="1" parent="wvw5FUJkC93zSwbtG9QK-35">
          <mxGeometry x="190" y="160" width="120" height="60" as="geometry" />
        </mxCell>
        <mxCell id="wvw5FUJkC93zSwbtG9QK-40" value="Set &lt;i&gt;High Temp&lt;/i&gt;&amp;nbsp;to &lt;i&gt;Forecast: High Temp * Conv. Factor&lt;/i&gt;" style="rounded=0;whiteSpace=wrap;html=1;" vertex="1" parent="wvw5FUJkC93zSwbtG9QK-35">
          <mxGeometry x="30" y="260" width="120" height="60" as="geometry" />
        </mxCell>
        <mxCell id="wvw5FUJkC93zSwbtG9QK-41" value="Add &lt;i&gt;Freezing Offset&lt;/i&gt;&amp;nbsp;to &lt;i&gt;High Temp&lt;/i&gt;" style="rounded=0;whiteSpace=wrap;html=1;" vertex="1" parent="wvw5FUJkC93zSwbtG9QK-35">
          <mxGeometry x="190" y="260" width="120" height="60" as="geometry" />
        </mxCell>
        <mxCell id="wvw5FUJkC93zSwbtG9QK-42" value="Set &lt;i&gt;Low Temp&lt;/i&gt;&amp;nbsp;to &lt;i&gt;Forecast: Low Temp * Conv. Factor&lt;/i&gt;" style="rounded=0;whiteSpace=wrap;html=1;" vertex="1" parent="wvw5FUJkC93zSwbtG9QK-35">
          <mxGeometry x="30" y="360" width="120" height="60" as="geometry" />
        </mxCell>
        <mxCell id="wvw5FUJkC93zSwbtG9QK-43" value="Add &lt;i&gt;Freezing Offset&lt;/i&gt;&amp;nbsp;to &lt;i&gt;Low Temp&lt;/i&gt;" style="rounded=0;whiteSpace=wrap;html=1;" vertex="1" parent="wvw5FUJkC93zSwbtG9QK-35">
          <mxGeometry x="190" y="360" width="120" height="60" as="geometry" />
        </mxCell>
        <mxCell id="wvw5FUJkC93zSwbtG9QK-44" value="Stop" style="ellipse;whiteSpace=wrap;html=1;fillColor=#f8cecc;strokeColor=#b85450;" vertex="1" parent="wvw5FUJkC93zSwbtG9QK-35">
          <mxGeometry x="30" y="460" width="120" height="80" as="geometry" />
        </mxCell>
        <mxCell id="wvw5FUJkC93zSwbtG9QK-45" value="&lt;i&gt;High Temp&lt;br&gt;Low Temp&lt;br&gt;&lt;/i&gt;" style="shape=parallelogram;perimeter=parallelogramPerimeter;whiteSpace=wrap;html=1;fixedSize=1;fillColor=#f5f5f5;fontColor=#333333;strokeColor=#666666;" vertex="1" parent="wvw5FUJkC93zSwbtG9QK-35">
          <mxGeometry x="180" y="470" width="120" height="60" as="geometry" />
        </mxCell>
        <mxCell id="wvw5FUJkC93zSwbtG9QK-46" value="" style="curved=1;endArrow=classic;html=1;rounded=0;" edge="1" parent="wvw5FUJkC93zSwbtG9QK-35">
          <mxGeometry width="50" height="50" relative="1" as="geometry">
            <mxPoint x="320" y="282.79999999999995" as="sourcePoint" />
            <mxPoint x="20" y="382.79999999999995" as="targetPoint" />
            <Array as="points">
              <mxPoint x="360" y="342.79999999999995" />
              <mxPoint x="-20" y="332.79999999999995" />
            </Array>
          </mxGeometry>
        </mxCell>
        <mxCell id="wvw5FUJkC93zSwbtG9QK-47" value="" style="curved=1;endArrow=classic;html=1;rounded=0;" edge="1" parent="wvw5FUJkC93zSwbtG9QK-35">
          <mxGeometry width="50" height="50" relative="1" as="geometry">
            <mxPoint x="320" y="187.20999999999992" as="sourcePoint" />
            <mxPoint x="20" y="287.21000000000004" as="targetPoint" />
            <Array as="points">
              <mxPoint x="360" y="247.21000000000004" />
              <mxPoint x="-20" y="237.21000000000004" />
            </Array>
          </mxGeometry>
        </mxCell>
        <mxCell id="wvw5FUJkC93zSwbtG9QK-48" value="" style="curved=1;endArrow=classic;html=1;rounded=0;" edge="1" parent="wvw5FUJkC93zSwbtG9QK-35">
          <mxGeometry width="50" height="50" relative="1" as="geometry">
            <mxPoint x="320" y="390" as="sourcePoint" />
            <mxPoint x="20" y="490" as="targetPoint" />
            <Array as="points">
              <mxPoint x="360" y="450" />
              <mxPoint x="-20" y="440" />
            </Array>
          </mxGeometry>
        </mxCell>
        <mxCell id="wvw5FUJkC93zSwbtG9QK-53" value="" style="endArrow=classic;html=1;rounded=0;" edge="1" parent="wvw5FUJkC93zSwbtG9QK-35">
          <mxGeometry width="50" height="50" relative="1" as="geometry">
            <mxPoint x="160" y="190" as="sourcePoint" />
            <mxPoint x="180" y="190" as="targetPoint" />
          </mxGeometry>
        </mxCell>
        <mxCell id="wvw5FUJkC93zSwbtG9QK-54" value="" style="endArrow=classic;html=1;rounded=0;" edge="1" parent="wvw5FUJkC93zSwbtG9QK-35">
          <mxGeometry width="50" height="50" relative="1" as="geometry">
            <mxPoint x="160" y="389.40999999999997" as="sourcePoint" />
            <mxPoint x="180" y="389.40999999999997" as="targetPoint" />
          </mxGeometry>
        </mxCell>
        <mxCell id="wvw5FUJkC93zSwbtG9QK-55" value="" style="endArrow=classic;html=1;rounded=0;" edge="1" parent="wvw5FUJkC93zSwbtG9QK-35">
          <mxGeometry width="50" height="50" relative="1" as="geometry">
            <mxPoint x="160" y="294.4100000000001" as="sourcePoint" />
            <mxPoint x="180" y="294.4100000000001" as="targetPoint" />
          </mxGeometry>
        </mxCell>
        <mxCell id="wvw5FUJkC93zSwbtG9QK-56" value="" style="endArrow=classic;html=1;rounded=0;" edge="1" parent="wvw5FUJkC93zSwbtG9QK-35">
          <mxGeometry width="50" height="50" relative="1" as="geometry">
            <mxPoint x="90" y="130" as="sourcePoint" />
            <mxPoint x="90" y="154.40999999999997" as="targetPoint" />
          </mxGeometry>
        </mxCell>
        <mxCell id="wvw5FUJkC93zSwbtG9QK-57" value="" style="endArrow=classic;html=1;rounded=0;" edge="1" parent="wvw5FUJkC93zSwbtG9QK-35">
          <mxGeometry width="50" height="50" relative="1" as="geometry">
            <mxPoint x="160" y="499.54999999999995" as="sourcePoint" />
            <mxPoint x="180" y="499.54999999999995" as="targetPoint" />
          </mxGeometry>
        </mxCell>
        <mxCell id="wvw5FUJkC93zSwbtG9QK-58" value="" style="endArrow=classic;html=1;rounded=0;" edge="1" parent="1">
          <mxGeometry width="50" height="50" relative="1" as="geometry">
            <mxPoint x="320" y="540" as="sourcePoint" />
            <mxPoint x="310" y="540" as="targetPoint" />
          </mxGeometry>
        </mxCell>
        <mxCell id="wvw5FUJkC93zSwbtG9QK-59" value="&lt;i&gt;Date&lt;/i&gt;" style="text;html=1;strokeColor=none;fillColor=none;align=center;verticalAlign=middle;whiteSpace=wrap;rounded=0;rotation=-90;" vertex="1" parent="1">
          <mxGeometry x="290" y="60" width="60" height="30" as="geometry" />
        </mxCell>
        <mxCell id="wvw5FUJkC93zSwbtG9QK-62" value="&lt;i&gt;Result&lt;/i&gt;" style="text;html=1;strokeColor=none;fillColor=none;align=center;verticalAlign=middle;whiteSpace=wrap;rounded=0;rotation=-30;" vertex="1" parent="1">
          <mxGeometry x="210" y="130" width="60" height="30" as="geometry" />
        </mxCell>
        <mxCell id="wvw5FUJkC93zSwbtG9QK-63" value="" style="curved=1;endArrow=classic;html=1;rounded=0;" edge="1" parent="1">
          <mxGeometry width="50" height="50" relative="1" as="geometry">
            <mxPoint x="470" y="200" as="sourcePoint" />
            <mxPoint x="170" y="300" as="targetPoint" />
            <Array as="points">
              <mxPoint x="510" y="260" />
              <mxPoint x="130" y="250.00000000000003" />
            </Array>
          </mxGeometry>
        </mxCell>
        <mxCell id="wvw5FUJkC93zSwbtG9QK-65" value="Set &lt;i&gt;farForecast &lt;/i&gt;to &lt;i&gt;Result&lt;/i&gt;" style="rounded=0;whiteSpace=wrap;html=1;" vertex="1" parent="1">
          <mxGeometry x="180" y="270" width="120" height="60" as="geometry" />
        </mxCell>
        <mxCell id="wvw5FUJkC93zSwbtG9QK-66" value="&lt;i&gt;Result&lt;/i&gt;" style="text;html=1;strokeColor=none;fillColor=none;align=center;verticalAlign=middle;whiteSpace=wrap;rounded=0;rotation=-30;" vertex="1" parent="1">
          <mxGeometry x="210" y="230" width="60" height="30" as="geometry" />
        </mxCell>
        <mxCell id="wvw5FUJkC93zSwbtG9QK-67" value="&lt;div style=&quot;text-align: left;&quot;&gt;&lt;span style=&quot;background-color: initial;&quot;&gt;&lt;i&gt;cel&lt;/i&gt;&lt;/span&gt;&lt;/div&gt;&lt;div style=&quot;text-align: left;&quot;&gt;&lt;span style=&quot;background-color: initial;&quot;&gt;&lt;i&gt;Forecast&lt;/i&gt;&lt;/span&gt;&lt;/div&gt;" style="text;html=1;strokeColor=none;fillColor=none;align=center;verticalAlign=middle;whiteSpace=wrap;rounded=0;rotation=-90;" vertex="1" parent="1">
          <mxGeometry x="290" y="160" width="60" height="30" as="geometry" />
        </mxCell>
        <mxCell id="wvw5FUJkC93zSwbtG9QK-68" value="Use &lt;i&gt;High Temp &lt;/i&gt;and &lt;i&gt;Low Temp&lt;/i&gt;&amp;nbsp;to select clothes to wear" style="rounded=0;whiteSpace=wrap;html=1;" vertex="1" parent="1">
          <mxGeometry x="340" y="270" width="120" height="60" as="geometry" />
        </mxCell>
        <mxCell id="wvw5FUJkC93zSwbtG9QK-69" value="" style="curved=1;endArrow=classic;html=1;rounded=0;" edge="1" parent="1">
          <mxGeometry width="50" height="50" relative="1" as="geometry">
            <mxPoint x="470" y="300" as="sourcePoint" />
            <mxPoint x="170" y="400" as="targetPoint" />
            <Array as="points">
              <mxPoint x="510" y="360" />
              <mxPoint x="130" y="350" />
            </Array>
          </mxGeometry>
        </mxCell>
        <mxCell id="wvw5FUJkC93zSwbtG9QK-71" value="Get dressed" style="rounded=0;whiteSpace=wrap;html=1;" vertex="1" parent="1">
          <mxGeometry x="180" y="370" width="120" height="60" as="geometry" />
        </mxCell>
        <mxCell id="wvw5FUJkC93zSwbtG9QK-73" value="" style="endArrow=classic;html=1;rounded=0;" edge="1" parent="1">
          <mxGeometry width="50" height="50" relative="1" as="geometry">
            <mxPoint x="310" y="300" as="sourcePoint" />
            <mxPoint x="330" y="300" as="targetPoint" />
          </mxGeometry>
        </mxCell>
        <mxCell id="wvw5FUJkC93zSwbtG9QK-74" value="" style="endArrow=classic;html=1;rounded=0;" edge="1" parent="1">
          <mxGeometry width="50" height="50" relative="1" as="geometry">
            <mxPoint x="310" y="399.73" as="sourcePoint" />
            <mxPoint x="330" y="399.73" as="targetPoint" />
          </mxGeometry>
        </mxCell>
        <mxCell id="wvw5FUJkC93zSwbtG9QK-76" value="Stop" style="ellipse;whiteSpace=wrap;html=1;fillColor=#f8cecc;strokeColor=#b85450;" vertex="1" parent="1">
          <mxGeometry x="340" y="360" width="120" height="80" as="geometry" />
        </mxCell>
      </root>
    </mxGraphModel>
  </diagram>
</mxfile>
